<?xml version="1.0" encoding="utf-8"?>
<svg width="1024" height="1024" viewBox="0 0 1024 1024"
     xmlns="http://www.w3.org/2000/svg">
<style>
path {
  fill: #000000;
  stroke: none;
}
</style>
<path d="M 563.18 997.03 C 593.18 982.70 610.36 956.10 610.35 923.97 C 610.34 894.59 596.46 868.64 572.55 853.30 C 555.98 842.67 550.99 841.98 489.22 841.79 C 455.73 841.69 432.46 842.26 430.66 843.22 C 421.95 847.88 421.91 848.07 413.74 918.96 C 409.48 956.00 406.45 987.87 407.02 989.79 C 408.54 994.93 410.83 998.04 415.42 1001.21 C 419.16 1003.80 425.15 1004.00 484.99 1003.57 C 550.47 1003.10 550.47 1003.10 563.18 997.03 Z" />
<path d="M 449.75 961.35 C 449.73 960.00 451.72 941.40 454.18 920.02 C 458.65 881.14 458.65 881.14 497.40 881.14 C 538.99 881.14 544.90 882.04 555.31 889.98 C 558.10 892.11 562.56 897.80 565.23 902.63 C 569.32 910.03 570.09 913.25 570.09 922.88 C 570.09 932.51 569.32 935.74 565.25 943.10 C 560.38 951.91 550.64 960.22 542.90 962.16 C 540.71 962.71 518.87 963.31 494.36 963.49 C 455.71 963.77 449.79 963.48 449.75 961.35 Z" />
<path d="M 353.96 949.49 C 354.88 943.99 358.13 917.33 358.13 915.24 C 358.13 914.59 348.00 908.85 335.62 902.47 C 301.50 884.91 303.02 889.89 322.29 859.04 C 331.29 844.64 339.21 831.89 339.91 830.72 C 340.86 829.10 344.03 830.21 353.11 835.36 C 359.68 839.08 365.60 841.51 366.27 840.76 C 367.31 839.59 369.06 829.31 372.22 805.84 C 372.98 800.20 372.80 800.00 359.89 792.30 C 331.41 775.34 297.20 745.54 275.82 719.08 C 254.57 692.80 230.36 649.86 220.90 621.68 C 219.08 616.28 217.13 610.67 216.56 609.22 C 215.72 607.07 217.08 606.37 223.73 605.49 C 245.16 602.65 251.43 580.42 234.38 567.74 C 223.65 559.77 144.62 502.87 133.65 495.23 C 122.94 487.76 117.72 486.76 108.84 490.47 C 104.26 492.39 101.30 497.02 86.09 526.08 C 76.47 544.45 59.71 576.05 48.85 596.31 C 37.98 616.57 29.09 634.87 29.09 636.99 C 29.09 649.03 42.14 659.70 53.65 657.07 C 56.80 656.35 61.74 654.54 64.62 653.04 C 67.50 651.55 70.85 650.33 72.07 650.33 C 73.38 650.33 75.82 655.17 78.05 662.20 C 83.71 680.08 96.96 711.15 107.57 731.46 C 148.35 809.54 211.42 876.60 285.73 920.89 C 304.24 931.93 348.88 954.80 351.91 954.80 C 352.55 954.81 353.47 952.41 353.96 949.49 Z" />
<path d="M 258.99 853.66 C 216.74 819.46 183.31 780.99 155.73 734.83 C 135.20 700.47 124.62 675.17 105.65 615.13 C 104.06 610.12 102.12 607.88 97.40 605.57 C 91.22 602.55 91.22 602.55 103.43 579.38 C 127.53 533.66 121.25 536.45 151.54 558.06 C 178.05 576.97 178.05 576.97 174.89 580.99 C 169.30 588.10 169.39 592.90 175.51 613.07 C 195.03 677.46 228.06 732.21 274.11 776.47 C 282.06 784.10 292.79 793.64 297.97 797.66 C 303.14 801.69 307.38 805.62 307.38 806.40 C 307.38 807.18 300.50 818.61 292.10 831.79 C 283.69 844.98 275.93 857.43 274.85 859.45 C 273.77 861.48 272.36 863.11 271.72 863.08 C 271.07 863.04 265.35 858.81 258.99 853.66 Z" />
<path d="M 562.84 771.47 C 566.04 770.58 570.83 767.59 573.48 764.82 C 578.18 759.92 578.32 759.25 579.33 738.21 C 579.90 726.34 580.45 716.52 580.56 716.39 C 580.66 716.25 587.94 713.39 596.71 710.01 C 605.49 706.64 616.15 702.14 620.40 700.02 C 624.64 697.90 629.06 696.16 630.22 696.17 C 631.37 696.17 639.26 702.42 647.76 710.06 C 664.67 725.28 670.16 727.63 679.83 723.78 C 683.15 722.45 697.17 709.94 714.09 693.17 C 752.58 655.05 753.01 653.34 730.31 628.71 C 722.78 620.54 716.62 612.84 716.62 611.59 C 716.62 610.34 719.10 604.37 722.14 598.31 C 725.17 592.26 729.35 582.52 731.41 576.67 C 736.73 561.60 737.98 560.52 750.64 559.96 C 761.36 559.48 761.36 559.48 765.12 544.74 C 767.19 536.64 768.91 529.83 768.94 529.60 C 768.98 529.38 746.23 529.19 718.39 529.19 C 667.77 529.19 667.77 529.19 662.75 545.15 C 650.59 583.84 623.75 614.94 586.87 633.10 C 563.91 644.40 550.08 647.53 522.64 647.64 C 503.72 647.72 497.30 647.08 485.81 643.99 C 454.93 635.69 426.28 617.35 407.93 594.14 C 395.25 578.10 389.19 566.93 382.89 547.94 C 370.75 511.35 372.99 473.61 389.33 439.28 C 408.46 399.12 441.96 371.15 484.63 359.73 C 513.61 351.97 539.62 352.80 568.48 362.42 C 616.31 378.36 653.17 418.17 664.53 466.17 C 666.45 474.27 668.25 481.82 668.53 482.95 C 668.93 484.53 680.23 484.99 718.11 484.99 C 745.10 484.99 767.50 484.44 767.89 483.77 C 768.29 483.09 766.23 474.07 763.31 463.71 C 758.01 444.89 758.01 444.89 748.82 444.05 C 743.75 443.59 738.61 442.13 737.37 440.78 C 736.13 439.44 733.41 433.55 731.33 427.70 C 729.24 421.85 725.08 412.11 722.08 406.05 C 719.08 400.00 716.62 393.99 716.62 392.71 C 716.62 391.43 722.86 383.71 730.49 375.56 C 753.68 350.76 753.38 349.41 716.08 311.76 C 700.62 296.16 685.99 282.34 683.55 281.06 C 681.12 279.78 675.81 278.74 671.74 278.74 C 663.78 278.74 661.92 279.96 642.67 297.90 C 637.53 302.70 631.83 306.56 629.92 306.56 C 628.02 306.56 623.36 304.95 619.57 302.98 C 615.78 301.01 605.70 296.74 597.18 293.48 C 579.09 286.59 579.53 287.33 579.26 263.19 C 579.04 244.79 577.54 240.45 569.44 235.00 C 564.03 231.35 562.91 231.26 521.99 231.27 C 482.84 231.28 479.72 231.49 474.66 234.58 C 466.93 239.30 464.53 246.41 464.53 264.66 C 464.53 286.28 464.06 287.11 448.71 292.63 C 441.65 295.17 431.67 299.34 426.52 301.91 C 421.36 304.47 415.57 306.56 413.64 306.56 C 411.50 306.56 405.25 301.86 397.63 294.50 C 390.76 287.86 383.53 281.60 381.56 280.59 C 377.28 278.37 367.98 278.18 362.73 280.20 C 360.65 281.00 345.92 294.29 329.99 309.72 C 298.34 340.42 295.63 344.43 299.01 355.70 C 300.17 359.58 305.70 367.07 313.94 375.95 C 321.13 383.70 327.02 391.16 327.02 392.54 C 327.02 393.92 324.56 400.00 321.55 406.05 C 318.54 412.11 314.05 422.69 311.57 429.57 C 306.38 444.01 306.30 444.05 283.85 444.11 C 267.09 444.15 258.41 447.66 254.46 455.98 C 252.13 460.89 251.72 467.76 251.72 502.10 C 251.72 544.76 252.15 547.55 259.74 554.42 C 262.44 556.86 267.15 557.84 281.60 558.95 C 308.14 560.98 306.00 559.78 312.21 576.21 C 315.19 584.11 319.75 594.79 322.33 599.95 C 324.91 605.10 327.02 610.47 327.02 611.89 C 327.02 613.30 320.86 620.96 313.32 628.91 C 298.84 644.20 296.58 649.12 299.40 659.31 C 301.45 666.73 356.93 721.30 365.08 723.91 C 374.30 726.87 380.76 723.93 397.60 709.09 C 405.68 701.98 412.89 696.16 413.62 696.16 C 414.36 696.16 420.40 698.66 427.06 701.70 C 433.71 704.75 443.94 708.92 449.80 710.96 C 455.65 713.01 461.36 715.81 462.48 717.19 C 463.85 718.87 464.53 725.79 464.53 737.98 C 464.53 754.25 464.94 756.86 468.24 761.81 C 475.25 772.30 478.93 773.10 520.19 773.09 C 540.44 773.09 559.64 772.36 562.84 771.47 Z" />
<path d="M 807.47 586.09 C 821.88 578.44 856.13 560.39 883.59 545.97 C 942.00 515.32 946.44 512.78 944.67 511.14 C 943.02 509.61 799.23 429.74 787.38 423.77 C 778.74 419.42 778.74 419.42 779.88 423.97 C 780.50 426.47 785.56 446.54 791.12 468.56 C 801.22 508.60 801.22 508.60 793.44 541.41 C 789.16 559.45 784.12 579.72 782.24 586.45 C 778.51 599.84 778.21 601.77 780.05 600.71 C 780.73 600.32 793.07 593.74 807.47 586.09 Z" />
<path d="M 624.30 521.99 C 629.10 517.18 629.86 515.34 629.86 508.44 C 629.86 503.85 628.77 498.90 627.31 496.81 C 621.81 488.96 617.86 488.27 578.38 488.27 C 541.47 488.27 541.47 488.27 541.47 440.85 C 541.47 393.44 541.47 393.44 536.43 387.70 C 528.10 378.22 513.03 378.33 505.48 387.93 C 502.30 391.97 502.18 394.40 502.24 453.70 C 502.28 501.67 502.77 516.14 504.46 519.19 C 508.88 527.17 510.88 527.44 566.59 527.50 C 618.73 527.56 618.73 527.56 624.30 521.99 Z" />
<path d="M 203.47 445.71 C 207.24 424.77 216.81 396.18 226.98 375.46 C 231.59 366.09 235.35 356.88 235.34 355.00 C 235.33 353.12 233.39 347.53 231.03 342.58 C 228.67 337.63 221.38 321.79 214.83 307.38 C 200.73 276.37 198.91 274.46 184.07 275.04 C 158.44 276.04 112.38 281.76 108.26 284.46 C 103.21 287.77 91.86 311.28 80.09 342.81 C 67.75 375.87 59.61 408.45 55.41 441.62 C 54.38 449.72 53.20 458.43 52.79 460.98 C 52.04 465.60 52.04 465.60 60.62 460.53 C 65.34 457.74 75.23 452.05 82.60 447.88 C 96.00 440.30 96.00 440.30 97.93 428.68 C 102.55 400.80 115.31 359.36 127.15 333.72 C 134.17 318.52 130.46 320.23 163.51 317.03 C 174.34 315.98 174.34 315.98 182.75 333.58 C 187.37 343.26 191.15 352.09 191.15 353.20 C 191.15 354.31 189.01 359.94 186.40 365.71 C 175.43 389.89 159.76 444.62 162.96 447.53 C 163.61 448.12 171.88 454.26 181.33 461.19 C 198.52 473.77 198.52 473.77 199.60 467.51 C 200.19 464.07 201.93 454.26 203.47 445.71 Z" />
<path d="M 937.67 436.68 C 940.31 435.31 943.65 431.91 945.09 429.12 C 951.76 416.22 994.91 292.82 994.91 286.64 C 994.91 276.12 986.13 267.26 975.75 267.29 C 973.23 267.30 967.23 269.14 962.41 271.39 C 957.60 273.63 953.06 275.46 952.33 275.46 C 951.60 275.46 946.80 267.91 941.65 258.68 C 920.61 220.93 895.42 187.60 863.95 155.85 C 801.51 92.85 729.11 52.05 636.20 27.52 C 607.98 20.07 601.79 20.00 594.79 27.05 C 590.10 31.78 589.29 34.01 587.50 47.11 C 586.40 55.21 582.22 81.97 578.22 106.58 C 574.21 131.20 571.37 153.04 571.89 155.13 C 573.78 162.64 579.79 165.94 601.95 171.68 C 679.02 191.60 743.96 234.41 789.47 295.28 C 801.47 311.34 813.20 329.58 813.20 332.18 C 813.20 332.97 809.46 334.96 804.87 336.58 C 797.58 339.17 796.13 340.48 793.22 347.05 C 789.95 354.45 789.94 354.68 792.96 361.86 C 796.01 369.12 796.20 369.25 858.89 404.15 C 925.15 441.05 927.41 441.98 937.67 436.68 Z" />
<path d="M 887.69 374.11 C 872.38 365.59 859.53 358.30 859.12 357.92 C 858.72 357.53 859.64 355.09 861.17 352.51 C 862.70 349.92 863.95 346.26 863.95 344.36 C 863.95 335.74 834.98 286.89 815.02 261.86 C 768.82 203.92 703.06 159.84 629.86 137.75 C 623.11 135.71 617.04 133.61 616.38 133.08 C 615.72 132.55 616.59 123.67 618.31 113.35 C 620.03 103.02 622.32 88.50 623.38 81.07 C 624.91 70.44 625.90 67.57 628.00 67.59 C 631.27 67.61 658.34 75.70 673.76 81.26 C 778.42 119.01 862.68 193.16 914.24 292.86 C 926.47 316.53 930.32 321.30 937.16 321.30 C 939.21 321.30 940.89 321.62 940.89 322.02 C 940.89 324.00 917.80 387.58 916.74 388.51 C 916.07 389.11 902.99 382.63 887.69 374.11 Z" />
<path d="M 297.71 260.32 C 320.06 240.00 327.85 233.78 346.67 221.23 C 381.11 198.27 421.63 181.60 463.48 173.15 C 475.05 170.82 486.20 167.81 488.24 166.47 C 490.29 165.13 494.37 159.45 497.32 153.86 C 500.27 148.26 508.83 132.82 516.34 119.54 C 530.15 95.13 532.36 88.11 528.48 80.87 C 526.53 77.22 470.49 28.21 464.79 25.16 C 459.50 22.34 447.26 24.11 413.20 32.65 C 349.33 48.66 286.04 79.34 235.35 118.86 C 210.12 138.54 177.47 169.27 173.98 176.63 C 168.08 189.06 168.55 189.64 219.47 232.23 C 244.86 253.47 267.11 271.47 268.91 272.23 C 278.04 276.10 282.28 274.34 297.71 260.32 Z" />
<path d="M 256.41 210.42 C 219.58 179.46 222.01 182.75 230.44 175.28 C 280.92 130.54 334.78 99.26 395.78 79.27 C 414.50 73.13 443.13 65.93 448.82 65.93 C 451.10 65.93 481.23 91.02 482.22 93.75 C 482.49 94.50 478.19 103.48 472.65 113.68 C 462.59 132.24 462.59 132.24 445.14 136.02 C 390.06 147.95 331.35 177.22 289.15 213.80 C 275.02 226.06 275.02 226.06 256.41 210.42 Z" />
</svg>